<?xml version="1.0" encoding="utf-8" standalone="no"?>
<!DOCTYPE svg PUBLIC "-//W3C//DTD SVG 1.1//EN"
  "http://www.w3.org/Graphics/SVG/1.1/DTD/svg11.dtd">
<!-- Created with matplotlib (https://matplotlib.org/) -->
<svg height="576pt" version="1.1" viewBox="0 0 576 576" width="576pt" xmlns="http://www.w3.org/2000/svg" xmlns:xlink="http://www.w3.org/1999/xlink">
 <defs>
  <style type="text/css">
*{stroke-linecap:butt;stroke-linejoin:round;}
  </style>
 </defs>
 <g id="figure_1">
  <g id="patch_1">
   <path d="M 0 576 
L 576 576 
L 576 0 
L 0 0 
z
" style="fill:#ffffff;"/>
  </g>
  <g id="axes_1">
   <g id="patch_2">
    <path clip-path="url(#pf2aa7836b1)" d="M 210.654545 492.48 
C 242.044949 492.48 272.153908 480.088922 294.350275 458.035757 
C 316.546642 435.982593 329.018182 406.067885 329.018182 374.88 
C 329.018182 343.692115 316.546642 313.777407 294.350275 291.724243 
C 272.153908 269.671078 242.044949 257.28 210.654545 257.28 
C 179.264142 257.28 149.155183 269.671078 126.958816 291.724243 
C 104.762449 313.777407 92.290909 343.692115 92.290909 374.88 
C 92.290909 406.067885 104.762449 435.982593 126.958816 458.035757 
C 149.155183 480.088922 179.264142 492.48 210.654545 492.48 
z
" style="fill:#ff0000;opacity:0.1;stroke:#ff0000;stroke-linejoin:miter;"/>
   </g>
   <g id="patch_3">
    <path clip-path="url(#pf2aa7836b1)" d="M 210.655797 374.890019 
Q 217.998532 402.12123 225.050192 428.272962 
" style="fill:none;stroke:#000000;stroke-linecap:round;"/>
    <path clip-path="url(#pf2aa7836b1)" d="M 225.094675 428.053824 
L 225.050192 428.272962 
L 224.901572 428.105894 
L 225.094675 428.053824 
z
" style="stroke:#000000;stroke-linecap:round;"/>
   </g>
   <g id="patch_4">
    <path clip-path="url(#pf2aa7836b1)" d="M 379.745455 324.48 
C 411.135858 324.48 441.244817 312.088922 463.441184 290.035757 
C 485.637551 267.982593 498.109091 238.067885 498.109091 206.88 
C 498.109091 175.692115 485.637551 145.777407 463.441184 123.724243 
C 441.244817 101.671078 411.135858 89.28 379.745455 89.28 
C 348.355051 89.28 318.246092 101.671078 296.049725 123.724243 
C 273.853358 145.777407 261.381818 175.692115 261.381818 206.88 
C 261.381818 238.067885 273.853358 267.982593 296.049725 290.035757 
C 318.246092 312.088922 348.355051 324.48 379.745455 324.48 
z
" style="fill:#008000;opacity:0.1;stroke:#008000;stroke-linejoin:miter;"/>
   </g>
   <g id="patch_5">
    <path clip-path="url(#pf2aa7836b1)" d="M 379.754521 206.82246 
Q 407.341913 182.345713 434.092993 158.610979 
" style="fill:none;stroke:#000000;stroke-linecap:round;"/>
    <path clip-path="url(#pf2aa7836b1)" d="M 433.877021 158.668912 
L 434.092993 158.610979 
L 434.009757 158.818516 
L 433.877021 158.668912 
z
" style="stroke:#000000;stroke-linecap:round;"/>
   </g>
   <g id="PathCollection_1">
    <path clip-path="url(#pf2aa7836b1)" d="M 210.655797 376.471157 
C 211.07512 376.471157 211.477325 376.304559 211.773831 376.008053 
C 212.070337 375.711546 212.236936 375.309341 212.236936 374.890019 
C 212.236936 374.470696 212.070337 374.068491 211.773831 373.771985 
C 211.477325 373.475478 211.07512 373.30888 210.655797 373.30888 
C 210.236474 373.30888 209.834269 373.475478 209.537763 373.771985 
C 209.241257 374.068491 209.074658 374.470696 209.074658 374.890019 
C 209.074658 375.309341 209.241257 375.711546 209.537763 376.008053 
C 209.834269 376.304559 210.236474 376.471157 210.655797 376.471157 
z
" style="fill:#ff0000;stroke:#ff0000;"/>
    <path clip-path="url(#pf2aa7836b1)" d="M 225.753165 432.461139 
C 226.172487 432.461139 226.574692 432.29454 226.871199 431.998034 
C 227.167705 431.701528 227.334303 431.299323 227.334303 430.88 
C 227.334303 430.460677 227.167705 430.058472 226.871199 429.761966 
C 226.574692 429.46546 226.172487 429.298861 225.753165 429.298861 
C 225.333842 429.298861 224.931637 429.46546 224.635131 429.761966 
C 224.338624 430.058472 224.172026 430.460677 224.172026 430.88 
C 224.172026 431.299323 224.338624 431.701528 224.635131 431.998034 
C 224.931637 432.29454 225.333842 432.461139 225.753165 432.461139 
z
" style="fill:#ff0000;stroke:#ff0000;"/>
   </g>
   <g id="PathCollection_2">
    <path clip-path="url(#pf2aa7836b1)" d="M 379.754521 208.403599 
C 380.173844 208.403599 380.576049 208.237001 380.872555 207.940494 
C 381.169061 207.643988 381.335659 207.241783 381.335659 206.82246 
C 381.335659 206.403138 381.169061 206.000933 380.872555 205.704426 
C 380.576049 205.40792 380.173844 205.241322 379.754521 205.241322 
C 379.335198 205.241322 378.932993 205.40792 378.636487 205.704426 
C 378.339981 206.000933 378.173382 206.403138 378.173382 206.82246 
C 378.173382 207.241783 378.339981 207.643988 378.636487 207.940494 
C 378.932993 208.237001 379.335198 208.403599 379.754521 208.403599 
z
" style="fill:#008000;stroke:#008000;"/>
    <path clip-path="url(#pf2aa7836b1)" d="M 436.109091 158.403347 
C 436.528414 158.403347 436.930619 158.236748 437.227125 157.940242 
C 437.523631 157.643736 437.69023 157.241531 437.69023 156.822208 
C 437.69023 156.402885 437.523631 156.00068 437.227125 155.704174 
C 436.930619 155.407668 436.528414 155.241069 436.109091 155.241069 
C 435.689768 155.241069 435.287563 155.407668 434.991057 155.704174 
C 434.694551 156.00068 434.527952 156.402885 434.527952 156.822208 
C 434.527952 157.241531 434.694551 157.643736 434.991057 157.940242 
C 435.287563 158.236748 435.689768 158.403347 436.109091 158.403347 
z
" style="fill:#008000;stroke:#008000;"/>
   </g>
   <g id="line2d_1">
    <path clip-path="url(#pf2aa7836b1)" d="M 210.655797 374.890019 
L 221.928524 395.341271 
L 233.201252 412.492009 
L 244.473979 426.342232 
L 255.746706 436.891942 
L 267.019433 444.141136 
L 278.292161 448.089817 
L 289.564888 448.737983 
L 300.837615 446.085635 
L 312.110342 440.132772 
L 323.38307 430.879395 
L 334.655797 418.325503 
L 345.928524 402.471097 
L 357.201252 383.316177 
L 368.473979 360.860743 
L 379.746706 335.104794 
L 391.019433 306.04833 
L 402.292161 273.691353 
L 413.564888 238.033861 
L 424.837615 199.075854 
" style="fill:none;stroke:#000000;stroke-dasharray:6.4,1.6,1,1.6;stroke-dashoffset:0;stroke-opacity:0.5;"/>
   </g>
   <g id="text_1">
    <!-- Layer0 -->
    <defs>
     <path d="M 9.8125 72.90625 
L 19.671875 72.90625 
L 19.671875 8.296875 
L 55.171875 8.296875 
L 55.171875 0 
L 9.8125 0 
z
" id="DejaVuSans-76"/>
     <path d="M 34.28125 27.484375 
Q 23.390625 27.484375 19.1875 25 
Q 14.984375 22.515625 14.984375 16.5 
Q 14.984375 11.71875 18.140625 8.90625 
Q 21.296875 6.109375 26.703125 6.109375 
Q 34.1875 6.109375 38.703125 11.40625 
Q 43.21875 16.703125 43.21875 25.484375 
L 43.21875 27.484375 
z
M 52.203125 31.203125 
L 52.203125 0 
L 43.21875 0 
L 43.21875 8.296875 
Q 40.140625 3.328125 35.546875 0.953125 
Q 30.953125 -1.421875 24.3125 -1.421875 
Q 15.921875 -1.421875 10.953125 3.296875 
Q 6 8.015625 6 15.921875 
Q 6 25.140625 12.171875 29.828125 
Q 18.359375 34.515625 30.609375 34.515625 
L 43.21875 34.515625 
L 43.21875 35.40625 
Q 43.21875 41.609375 39.140625 45 
Q 35.0625 48.390625 27.6875 48.390625 
Q 23 48.390625 18.546875 47.265625 
Q 14.109375 46.140625 10.015625 43.890625 
L 10.015625 52.203125 
Q 14.9375 54.109375 19.578125 55.046875 
Q 24.21875 56 28.609375 56 
Q 40.484375 56 46.34375 49.84375 
Q 52.203125 43.703125 52.203125 31.203125 
z
" id="DejaVuSans-97"/>
     <path d="M 32.171875 -5.078125 
Q 28.375 -14.84375 24.75 -17.8125 
Q 21.140625 -20.796875 15.09375 -20.796875 
L 7.90625 -20.796875 
L 7.90625 -13.28125 
L 13.1875 -13.28125 
Q 16.890625 -13.28125 18.9375 -11.515625 
Q 21 -9.765625 23.484375 -3.21875 
L 25.09375 0.875 
L 2.984375 54.6875 
L 12.5 54.6875 
L 29.59375 11.921875 
L 46.6875 54.6875 
L 56.203125 54.6875 
z
" id="DejaVuSans-121"/>
     <path d="M 56.203125 29.59375 
L 56.203125 25.203125 
L 14.890625 25.203125 
Q 15.484375 15.921875 20.484375 11.0625 
Q 25.484375 6.203125 34.421875 6.203125 
Q 39.59375 6.203125 44.453125 7.46875 
Q 49.3125 8.734375 54.109375 11.28125 
L 54.109375 2.78125 
Q 49.265625 0.734375 44.1875 -0.34375 
Q 39.109375 -1.421875 33.890625 -1.421875 
Q 20.796875 -1.421875 13.15625 6.1875 
Q 5.515625 13.8125 5.515625 26.8125 
Q 5.515625 40.234375 12.765625 48.109375 
Q 20.015625 56 32.328125 56 
Q 43.359375 56 49.78125 48.890625 
Q 56.203125 41.796875 56.203125 29.59375 
z
M 47.21875 32.234375 
Q 47.125 39.59375 43.09375 43.984375 
Q 39.0625 48.390625 32.421875 48.390625 
Q 24.90625 48.390625 20.390625 44.140625 
Q 15.875 39.890625 15.1875 32.171875 
z
" id="DejaVuSans-101"/>
     <path d="M 41.109375 46.296875 
Q 39.59375 47.171875 37.8125 47.578125 
Q 36.03125 48 33.890625 48 
Q 26.265625 48 22.1875 43.046875 
Q 18.109375 38.09375 18.109375 28.8125 
L 18.109375 0 
L 9.078125 0 
L 9.078125 54.6875 
L 18.109375 54.6875 
L 18.109375 46.1875 
Q 20.953125 51.171875 25.484375 53.578125 
Q 30.03125 56 36.53125 56 
Q 37.453125 56 38.578125 55.875 
Q 39.703125 55.765625 41.0625 55.515625 
z
" id="DejaVuSans-114"/>
     <path d="M 31.78125 66.40625 
Q 24.171875 66.40625 20.328125 58.90625 
Q 16.5 51.421875 16.5 36.375 
Q 16.5 21.390625 20.328125 13.890625 
Q 24.171875 6.390625 31.78125 6.390625 
Q 39.453125 6.390625 43.28125 13.890625 
Q 47.125 21.390625 47.125 36.375 
Q 47.125 51.421875 43.28125 58.90625 
Q 39.453125 66.40625 31.78125 66.40625 
z
M 31.78125 74.21875 
Q 44.046875 74.21875 50.515625 64.515625 
Q 56.984375 54.828125 56.984375 36.375 
Q 56.984375 17.96875 50.515625 8.265625 
Q 44.046875 -1.421875 31.78125 -1.421875 
Q 19.53125 -1.421875 13.0625 8.265625 
Q 6.59375 17.96875 6.59375 36.375 
Q 6.59375 54.828125 13.0625 64.515625 
Q 19.53125 74.21875 31.78125 74.21875 
z
" id="DejaVuSans-48"/>
    </defs>
    <g transform="translate(267.018182 542.88)scale(0.1 -0.1)">
     <use xlink:href="#DejaVuSans-76"/>
     <use x="55.712891" xlink:href="#DejaVuSans-97"/>
     <use x="116.992188" xlink:href="#DejaVuSans-121"/>
     <use x="176.171875" xlink:href="#DejaVuSans-101"/>
     <use x="237.695312" xlink:href="#DejaVuSans-114"/>
     <use x="278.808594" xlink:href="#DejaVuSans-48"/>
    </g>
   </g>
   <g id="text_2">
    <!-- Layer1 -->
    <defs>
     <path d="M 12.40625 8.296875 
L 28.515625 8.296875 
L 28.515625 63.921875 
L 10.984375 60.40625 
L 10.984375 69.390625 
L 28.421875 72.90625 
L 38.28125 72.90625 
L 38.28125 8.296875 
L 54.390625 8.296875 
L 54.390625 0 
L 12.40625 0 
z
" id="DejaVuSans-49"/>
    </defs>
    <g transform="translate(436.109091 374.88)scale(0.1 -0.1)">
     <use xlink:href="#DejaVuSans-76"/>
     <use x="55.712891" xlink:href="#DejaVuSans-97"/>
     <use x="116.992188" xlink:href="#DejaVuSans-121"/>
     <use x="176.171875" xlink:href="#DejaVuSans-101"/>
     <use x="237.695312" xlink:href="#DejaVuSans-114"/>
     <use x="278.808594" xlink:href="#DejaVuSans-49"/>
    </g>
   </g>
  </g>
 </g>
 <defs>
  <clipPath id="pf2aa7836b1">
   <rect height="443.52" width="446.4" x="72" y="69.12"/>
  </clipPath>
 </defs>
</svg>
