<?xml version="1.0" encoding="utf-8" standalone="no"?>
<!DOCTYPE svg PUBLIC "-//W3C//DTD SVG 1.1//EN"
  "http://www.w3.org/Graphics/SVG/1.1/DTD/svg11.dtd">
<!-- Created with matplotlib (https://matplotlib.org/) -->
<svg height="576pt" version="1.1" viewBox="0 0 576 576" width="576pt" xmlns="http://www.w3.org/2000/svg" xmlns:xlink="http://www.w3.org/1999/xlink">
 <defs>
  <style type="text/css">
*{stroke-linecap:butt;stroke-linejoin:round;}
  </style>
 </defs>
 <g id="figure_1">
  <g id="patch_1">
   <path d="M 0 576 
L 576 576 
L 576 0 
L 0 0 
z
" style="fill:#ffffff;"/>
  </g>
  <g id="axes_1">
   <g id="patch_2">
    <path clip-path="url(#p27acf44ae0)" d="M 210.654545 492.48 
C 242.044949 492.48 272.153908 480.088922 294.350275 458.035757 
C 316.546642 435.982593 329.018182 406.067885 329.018182 374.88 
C 329.018182 343.692115 316.546642 313.777407 294.350275 291.724243 
C 272.153908 269.671078 242.044949 257.28 210.654545 257.28 
C 179.264142 257.28 149.155183 269.671078 126.958816 291.724243 
C 104.762449 313.777407 92.290909 343.692115 92.290909 374.88 
C 92.290909 406.067885 104.762449 435.982593 126.958816 458.035757 
C 149.155183 480.088922 179.264142 492.48 210.654545 492.48 
z
" style="fill:#ff0000;opacity:0.1;stroke:#ff0000;stroke-linejoin:miter;"/>
   </g>
   <g id="patch_3">
    <path clip-path="url(#p27acf44ae0)" d="M 210.595666 374.970716 
Q 212.522913 347.714476 214.371302 321.573486 
" style="fill:none;stroke:#000000;stroke-linecap:round;"/>
    <path clip-path="url(#p27acf44ae0)" d="M 214.257445 321.765934 
L 214.371302 321.573486 
L 214.456947 321.780041 
L 214.257445 321.765934 
z
" style="stroke:#000000;stroke-linecap:round;"/>
   </g>
   <g id="patch_4">
    <path clip-path="url(#p27acf44ae0)" d="M 379.745455 324.48 
C 411.135858 324.48 441.244817 312.088922 463.441184 290.035757 
C 485.637551 267.982593 498.109091 238.067885 498.109091 206.88 
C 498.109091 175.692115 485.637551 145.777407 463.441184 123.724243 
C 441.244817 101.671078 411.135858 89.28 379.745455 89.28 
C 348.355051 89.28 318.246092 101.671078 296.049725 123.724243 
C 273.853358 145.777407 261.381818 175.692115 261.381818 206.88 
C 261.381818 238.067885 273.853358 267.982593 296.049725 290.035757 
C 318.246092 312.088922 348.355051 324.48 379.745455 324.48 
z
" style="fill:#008000;opacity:0.1;stroke:#008000;stroke-linejoin:miter;"/>
   </g>
   <g id="patch_5">
    <path clip-path="url(#p27acf44ae0)" d="M 379.744507 206.895249 
Q 352.352667 204.629879 326.075057 202.456659 
" style="fill:none;stroke:#000000;stroke-linecap:round;"/>
    <path clip-path="url(#p27acf44ae0)" d="M 326.266134 202.572803 
L 326.075057 202.456659 
L 326.282618 202.373483 
L 326.266134 202.572803 
z
" style="stroke:#000000;stroke-linecap:round;"/>
   </g>
   <g id="PathCollection_1">
    <path clip-path="url(#p27acf44ae0)" d="M 210.595666 376.551855 
C 211.014989 376.551855 211.417194 376.385256 211.7137 376.08875 
C 212.010206 375.792244 212.176805 375.390039 212.176805 374.970716 
C 212.176805 374.551393 212.010206 374.149188 211.7137 373.852682 
C 211.417194 373.556176 211.014989 373.389577 210.595666 373.389577 
C 210.176343 373.389577 209.774138 373.556176 209.477632 373.852682 
C 209.181126 374.149188 209.014527 374.551393 209.014527 374.970716 
C 209.014527 375.390039 209.181126 375.792244 209.477632 376.08875 
C 209.774138 376.385256 210.176343 376.551855 210.595666 376.551855 
z
" style="fill:#ff0000;stroke:#ff0000;"/>
    <path clip-path="url(#p27acf44ae0)" d="M 214.561755 320.461139 
C 214.981078 320.461139 215.383282 320.29454 215.679789 319.998034 
C 215.976295 319.701528 216.142893 319.299323 216.142893 318.88 
C 216.142893 318.460677 215.976295 318.058472 215.679789 317.761966 
C 215.383282 317.46546 214.981078 317.298861 214.561755 317.298861 
C 214.142432 317.298861 213.740227 317.46546 213.443721 317.761966 
C 213.147215 318.058472 212.980616 318.460677 212.980616 318.88 
C 212.980616 319.299323 213.147215 319.701528 213.443721 319.998034 
C 213.740227 320.29454 214.142432 320.461139 214.561755 320.461139 
z
" style="fill:#ff0000;stroke:#ff0000;"/>
   </g>
   <g id="PathCollection_2">
    <path clip-path="url(#p27acf44ae0)" d="M 379.744507 208.476388 
C 380.16383 208.476388 380.566035 208.309789 380.862541 208.013283 
C 381.159047 207.716777 381.325646 207.314572 381.325646 206.895249 
C 381.325646 206.475926 381.159047 206.073721 380.862541 205.777215 
C 380.566035 205.480709 380.16383 205.31411 379.744507 205.31411 
C 379.325184 205.31411 378.922979 205.480709 378.626473 205.777215 
C 378.329967 206.073721 378.163368 206.475926 378.163368 206.895249 
C 378.163368 207.314572 378.329967 207.716777 378.626473 208.013283 
C 378.922979 208.309789 379.325184 208.476388 379.744507 208.476388 
z
" style="fill:#008000;stroke:#008000;"/>
    <path clip-path="url(#p27acf44ae0)" d="M 323.381818 203.81506 
C 323.801141 203.81506 324.203346 203.648461 324.499852 203.351955 
C 324.796358 203.055449 324.962957 202.653244 324.962957 202.233921 
C 324.962957 201.814598 324.796358 201.412393 324.499852 201.115887 
C 324.203346 200.819381 323.801141 200.652783 323.381818 200.652783 
C 322.962495 200.652783 322.56029 200.819381 322.263784 201.115887 
C 321.967278 201.412393 321.800679 201.814598 321.800679 202.233921 
C 321.800679 202.653244 321.967278 203.055449 322.263784 203.351955 
C 322.56029 203.648461 322.962495 203.81506 323.381818 203.81506 
z
" style="fill:#008000;stroke:#008000;"/>
   </g>
   <g id="text_1">
    <!-- Layer1 -->
    <defs>
     <path d="M 9.8125 72.90625 
L 19.671875 72.90625 
L 19.671875 8.296875 
L 55.171875 8.296875 
L 55.171875 0 
L 9.8125 0 
z
" id="DejaVuSans-76"/>
     <path d="M 34.28125 27.484375 
Q 23.390625 27.484375 19.1875 25 
Q 14.984375 22.515625 14.984375 16.5 
Q 14.984375 11.71875 18.140625 8.90625 
Q 21.296875 6.109375 26.703125 6.109375 
Q 34.1875 6.109375 38.703125 11.40625 
Q 43.21875 16.703125 43.21875 25.484375 
L 43.21875 27.484375 
z
M 52.203125 31.203125 
L 52.203125 0 
L 43.21875 0 
L 43.21875 8.296875 
Q 40.140625 3.328125 35.546875 0.953125 
Q 30.953125 -1.421875 24.3125 -1.421875 
Q 15.921875 -1.421875 10.953125 3.296875 
Q 6 8.015625 6 15.921875 
Q 6 25.140625 12.171875 29.828125 
Q 18.359375 34.515625 30.609375 34.515625 
L 43.21875 34.515625 
L 43.21875 35.40625 
Q 43.21875 41.609375 39.140625 45 
Q 35.0625 48.390625 27.6875 48.390625 
Q 23 48.390625 18.546875 47.265625 
Q 14.109375 46.140625 10.015625 43.890625 
L 10.015625 52.203125 
Q 14.9375 54.109375 19.578125 55.046875 
Q 24.21875 56 28.609375 56 
Q 40.484375 56 46.34375 49.84375 
Q 52.203125 43.703125 52.203125 31.203125 
z
" id="DejaVuSans-97"/>
     <path d="M 32.171875 -5.078125 
Q 28.375 -14.84375 24.75 -17.8125 
Q 21.140625 -20.796875 15.09375 -20.796875 
L 7.90625 -20.796875 
L 7.90625 -13.28125 
L 13.1875 -13.28125 
Q 16.890625 -13.28125 18.9375 -11.515625 
Q 21 -9.765625 23.484375 -3.21875 
L 25.09375 0.875 
L 2.984375 54.6875 
L 12.5 54.6875 
L 29.59375 11.921875 
L 46.6875 54.6875 
L 56.203125 54.6875 
z
" id="DejaVuSans-121"/>
     <path d="M 56.203125 29.59375 
L 56.203125 25.203125 
L 14.890625 25.203125 
Q 15.484375 15.921875 20.484375 11.0625 
Q 25.484375 6.203125 34.421875 6.203125 
Q 39.59375 6.203125 44.453125 7.46875 
Q 49.3125 8.734375 54.109375 11.28125 
L 54.109375 2.78125 
Q 49.265625 0.734375 44.1875 -0.34375 
Q 39.109375 -1.421875 33.890625 -1.421875 
Q 20.796875 -1.421875 13.15625 6.1875 
Q 5.515625 13.8125 5.515625 26.8125 
Q 5.515625 40.234375 12.765625 48.109375 
Q 20.015625 56 32.328125 56 
Q 43.359375 56 49.78125 48.890625 
Q 56.203125 41.796875 56.203125 29.59375 
z
M 47.21875 32.234375 
Q 47.125 39.59375 43.09375 43.984375 
Q 39.0625 48.390625 32.421875 48.390625 
Q 24.90625 48.390625 20.390625 44.140625 
Q 15.875 39.890625 15.1875 32.171875 
z
" id="DejaVuSans-101"/>
     <path d="M 41.109375 46.296875 
Q 39.59375 47.171875 37.8125 47.578125 
Q 36.03125 48 33.890625 48 
Q 26.265625 48 22.1875 43.046875 
Q 18.109375 38.09375 18.109375 28.8125 
L 18.109375 0 
L 9.078125 0 
L 9.078125 54.6875 
L 18.109375 54.6875 
L 18.109375 46.1875 
Q 20.953125 51.171875 25.484375 53.578125 
Q 30.03125 56 36.53125 56 
Q 37.453125 56 38.578125 55.875 
Q 39.703125 55.765625 41.0625 55.515625 
z
" id="DejaVuSans-114"/>
     <path d="M 12.40625 8.296875 
L 28.515625 8.296875 
L 28.515625 63.921875 
L 10.984375 60.40625 
L 10.984375 69.390625 
L 28.421875 72.90625 
L 38.28125 72.90625 
L 38.28125 8.296875 
L 54.390625 8.296875 
L 54.390625 0 
L 12.40625 0 
z
" id="DejaVuSans-49"/>
    </defs>
    <g transform="translate(267.018182 542.88)scale(0.1 -0.1)">
     <use xlink:href="#DejaVuSans-76"/>
     <use x="55.712891" xlink:href="#DejaVuSans-97"/>
     <use x="116.992188" xlink:href="#DejaVuSans-121"/>
     <use x="176.171875" xlink:href="#DejaVuSans-101"/>
     <use x="237.695312" xlink:href="#DejaVuSans-114"/>
     <use x="278.808594" xlink:href="#DejaVuSans-49"/>
    </g>
   </g>
   <g id="text_2">
    <!-- Layer2 -->
    <defs>
     <path d="M 19.1875 8.296875 
L 53.609375 8.296875 
L 53.609375 0 
L 7.328125 0 
L 7.328125 8.296875 
Q 12.9375 14.109375 22.625 23.890625 
Q 32.328125 33.6875 34.8125 36.53125 
Q 39.546875 41.84375 41.421875 45.53125 
Q 43.3125 49.21875 43.3125 52.78125 
Q 43.3125 58.59375 39.234375 62.25 
Q 35.15625 65.921875 28.609375 65.921875 
Q 23.96875 65.921875 18.8125 64.3125 
Q 13.671875 62.703125 7.8125 59.421875 
L 7.8125 69.390625 
Q 13.765625 71.78125 18.9375 73 
Q 24.125 74.21875 28.421875 74.21875 
Q 39.75 74.21875 46.484375 68.546875 
Q 53.21875 62.890625 53.21875 53.421875 
Q 53.21875 48.921875 51.53125 44.890625 
Q 49.859375 40.875 45.40625 35.40625 
Q 44.1875 33.984375 37.640625 27.21875 
Q 31.109375 20.453125 19.1875 8.296875 
z
" id="DejaVuSans-50"/>
    </defs>
    <g transform="translate(436.109091 374.88)scale(0.1 -0.1)">
     <use xlink:href="#DejaVuSans-76"/>
     <use x="55.712891" xlink:href="#DejaVuSans-97"/>
     <use x="116.992188" xlink:href="#DejaVuSans-121"/>
     <use x="176.171875" xlink:href="#DejaVuSans-101"/>
     <use x="237.695312" xlink:href="#DejaVuSans-114"/>
     <use x="278.808594" xlink:href="#DejaVuSans-50"/>
    </g>
   </g>
  </g>
 </g>
 <defs>
  <clipPath id="p27acf44ae0">
   <rect height="443.52" width="446.4" x="72" y="69.12"/>
  </clipPath>
 </defs>
</svg>
